<?xml version="1.0" encoding="utf-8"?>
<!-- Generator: Adobe Illustrator 21.1.0, SVG Export Plug-In . SVG Version: 6.00 Build 0)  -->
<svg version="1.1" id="Layer_1" xmlns="http://www.w3.org/2000/svg" xmlns:xlink="http://www.w3.org/1999/xlink" x="0px" y="0px"
	 viewBox="0 0 325.6 97.2" style="enable-background:new 0 0 325.6 97.2;" xml:space="preserve">
<style type="text/css">
	.st0{fill:#1BB200;}
	.st1{fill:#487501;}
	.st2{fill:#2ECC71;}
	.st3{opacity:0.75;enable-background:new    ;}
	.st4{fill:#FFFFFF;}
	.st5{fill:#05C46B;}
	.st6{opacity:0.9;fill:#05C46B;}
	.st7{opacity:0.4;fill:#05C46B;}
	.st8{fill:#EAEAEA;}
	.st9{fill:#D2DAE2;}
	.st10{fill:#F7F1E3;}
</style>
<polygon class="st0" points="-225.3,-62 -168.5,-29.5 -225.1,3.5 "/>
<polygon class="st1" points="-215.6,-62 -154.8,-29.5 -215.3,3.5 "/>
<polygon class="st2" points="-204.8,-62.3 -148,-29.8 -204.5,3.2 "/>
<g class="st3">
	<path class="st4" d="M127.7,30.4c0.3,1.4,0.5,2.9,0.6,4.4c0.1,1.6,0,3.1-0.3,4.5c-0.6,2.6-1.5,4.9-2.8,6.9c-0.7,0.9-1.3,1.5-2,1.9
		c-0.7,0.3-1.5,0.6-2.2,0.7c-1.1,0.2-2,0.4-3.1,0.6c-1,0.1-2,0.3-3,0.5c-0.1,0.1-0.1,0.2-0.2,0.3c-0.1,0.2-0.2,0.3-0.2,0.4
		c0.1,2.5,0.1,5,0.2,7.4c0.1,2.4,0.2,4.9,0.2,7.4c0.1,1.6,0.1,3.1,0,4.7c0,1.5,0,3.1,0.1,4.7c0.1,1.2-0.2,1.8-0.9,1.9
		c-0.4,0.1-0.8,0.2-1.1,0.2c-0.4,0-0.7,0.1-1.1,0.1c-0.4,0.1-0.8,0.1-1.2,0c-0.4,0-0.8,0-1.2,0c-0.3,0.1-0.5,0-0.6-0.3
		c-0.1-0.2-0.1-0.6-0.2-1c0-0.5,0-1.6,0-3.1s-0.1-3.4-0.1-5.5s-0.1-4.5-0.1-7s-0.1-5-0.2-7.4s-0.1-4.7-0.1-6.8s-0.1-3.9-0.1-5.3
		c-0.1-1.9-0.1-3.8-0.1-5.7s0-3.9,0-5.7c0-1,0-2,0-2.9s0-2-0.1-2.9c0-0.5,0-0.8,0.2-1c0.1-0.2,0.3-0.3,0.5-0.4
		c0.9-0.1,1.6-0.2,2.5-0.3c0.9-0.1,1.6-0.2,2.5-0.3c0.6,0,1.2,0,1.8,0c0.6,0.1,1.2,0.1,1.7,0c2.2-0.2,4.3,0.4,6.3,2
		C125.5,24.6,126.9,27.1,127.7,30.4z M122.4,35.2c0.1-0.6,0-1.2-0.2-1.9c-0.4-0.9-0.9-1.6-1.4-2.1c-0.6-0.5-1.2-0.8-1.7-0.9
		c-0.8-0.1-1.5-0.1-2.3,0s-1.5,0.2-2.4,0.3l0,0c-0.1,0-0.3,0.1-0.4,0.3c-0.1,0.2-0.2,0.5-0.1,0.7c0,0.2,0,0.5,0,0.7s0,0.5,0,0.7
		c0,0.9,0,1.8,0,2.6c0,0.9,0.1,1.7,0.1,2.6c0.1,0.8,0.2,1.4,0.4,1.6c0.2,0.2,0.5,0.3,1,0.2c0.6-0.1,1.2-0.2,1.8-0.2s1.3-0.2,1.8-0.4
		c0.8-0.2,1.5-0.7,2-1.3C121.8,37.6,122.2,36.6,122.4,35.2z"/>
	<path class="st4" d="M151.2,75c0,0.6,0,1.1-0.2,1.4s-0.5,0.5-0.9,0.5c-1.2,0-2.3,0-3.5,0s-2.3,0-3.6-0.1c-1,0-2-0.1-3-0.1
		c-1.1,0-2-0.1-3.1-0.1c-1,0-2,0.1-3,0.1c-1.1,0-2,0.1-3,0.2c-0.5,0-0.7-0.3-0.7-1v-7.1c0-3.1,0-6.1,0.1-9.2c0.1-3,0.1-6.1,0.1-9.2
		c0-1.6,0-3.3,0-4.9c0-1.6,0-3.2,0-4.8v-14c0-0.7,0-1.5,0-2.2s-0.1-1.5-0.1-2.2c0-0.9,0.3-1.3,0.9-1.3l2.6,0.2c0.5,0,1,0.1,1.5,0.1
		c0.5,0,1,0,1.5,0.1c0.1,0.1,0.2,0.2,0.3,0.4c0.1,0.2,0.2,0.4,0.2,0.6c0,0.7,0,1.4,0,2.2c0,0.7,0,1.5,0,2.2c0,1,0,2,0,2.9
		s0,1.9,0,2.9c0,0.7,0,1.5,0,2.2s0,1.5,0,2.3v5.6c-0.1,1.8-0.1,3.6-0.1,5.4s-0.1,3.6-0.1,5.4c0,0.5,0,1.1,0,1.6s0,1.1,0,1.6
		c0,1.2,0,2.4,0,3.6c0,1.2,0,2.4,0,3.6c0,0.8,0.1,1.4,0.2,1.6c0.1,0.2,0.4,0.3,0.9,0.4c0.8,0.1,1.5,0.2,2.4,0.3
		c0.8,0.1,1.5,0.1,2.4,0.1c0.8,0,1.5-0.1,2.3-0.2c0.8,0,1.5-0.1,2.3-0.2c0.5,0,0.9-0.1,1.4-0.1s1,0,1.5,0c0.4-0.1,0.6,0.2,0.6,0.9
		v3.8v1.6c0,0.4,0,0.9,0,1.4C151.2,74.2,151.2,74.6,151.2,75z"/>
	<path class="st4" d="M178.5,74.7c0.1,0.6,0.1,1.1-0.1,1.5s-0.5,0.6-0.9,0.6c-0.4,0-0.8,0-1.1,0s-0.6,0-0.9,0s-0.6,0-1,0
		c-0.4,0-0.8,0-1.3,0c-0.6,0-1-0.5-1.2-1.5c-0.2-1.3-0.5-2.6-0.7-3.8c-0.2-1.2-0.5-2.5-0.7-3.8c-0.4-1.7-0.7-3.4-0.9-5.2
		c-0.1-0.3-0.1-0.6-0.2-0.7c-0.1-0.1-0.3-0.2-0.5-0.3c-0.6-0.1-1.3-0.2-1.8-0.3c-0.6-0.1-1.3-0.2-1.8-0.3c-0.6,0-1.2-0.1-1.8,0
		c-0.6,0-1.2,0.1-1.8,0.2c-0.2,0.1-0.3,0.3-0.4,0.6c-0.1,0.9-0.3,1.9-0.4,2.8c-0.1,0.9-0.3,1.9-0.4,2.8c-0.1,0.7-0.2,1.4-0.4,2
		c-0.1,0.6-0.3,1.3-0.4,2c-0.1,0.8-0.3,1.6-0.4,2.3c-0.1,0.7-0.3,1.5-0.4,2.3c-0.1,0.3-0.2,0.6-0.3,0.9c-0.1,0.3-0.3,0.4-0.5,0.4
		c-0.4,0-0.8,0-1.2,0c-0.4,0-0.7,0-1,0.1c-0.3,0-0.7,0.1-1.1,0.1s-0.9,0-1.4,0c-0.2,0-0.5-0.3-0.7-0.8c-0.2-0.5-0.3-1-0.2-1.4
		c0.1-0.5,0.2-0.8,0.2-0.8s0-0.3,0.1-0.7c0.4-1.7,0.7-3.5,1-5.1c0.3-1.7,0.7-3.4,1-5.1c0.4-1.9,0.8-3.9,1.2-5.8
		c0.4-1.9,0.8-3.9,1.1-5.9c0.3-1.7,0.6-3.5,0.9-5.3c0.3-1.8,0.6-3.6,0.9-5.4c0.3-1.5,0.5-3.1,0.8-4.6c0.3-1.5,0.5-3,0.8-4.6
		c0.2-1.2,0.4-2.4,0.6-3.5c0.2-1.2,0.4-2.4,0.6-3.5c0.1-0.3,0.1-0.6,0.2-0.9c0.1-0.2,0.1-0.6,0.1-1c0.1-0.5,0.2-0.9,0.5-1.1
		s0.5-0.3,0.8-0.3c0.9,0,1.6-0.1,2.3,0c0.7,0,1.5,0,2.4,0c0.3,0,0.5,0.2,0.7,0.7c0.1,0.5,0.3,0.9,0.3,1.2c0.2,1,0.4,1.9,0.5,2.7
		c0.2,0.7,0.4,1.6,0.6,2.6c0.2,0.9,0.4,1.9,0.6,2.8c0.2,0.9,0.4,1.9,0.6,2.8c0.5,2.5,1,5,1.5,7.4s0.9,4.9,1.4,7.4
		c0.3,1.3,0.5,2.7,0.7,4.1c0.2,1.4,0.4,2.7,0.6,4.1c0.3,1.6,0.5,3.2,0.8,4.7s0.6,3.1,0.9,4.7c0.3,1.5,0.6,2.9,0.8,4.2
		C178,71.8,178.2,73.2,178.5,74.7z M167.2,51.3c0.4,0,0.7,0,0.7-0.1c0.1-0.1,0.1-0.6-0.1-1.3c-0.2-1.2-0.4-2.4-0.6-3.6
		c-0.2-1.2-0.4-2.4-0.6-3.6c-0.1-0.7-0.2-1.3-0.4-1.9c-0.1-0.6-0.3-1.2-0.4-1.9c0-0.2-0.1-0.3-0.2-0.3c-0.1,0-0.2,0.1-0.3,0.3
		s-0.2,0.7-0.3,1.6c-0.1,0.4-0.2,0.9-0.3,1.4l-0.8,4.6c-0.1,0.6-0.2,1.3-0.3,1.9c-0.1,0.6-0.2,1.3-0.3,2v0.1c-0.1,0.3,0,0.4,0.2,0.4
		l0.9,0.1c0.5,0.1,0.9,0.2,1.4,0.2C166.3,51.2,166.7,51.2,167.2,51.3z"/>
	<path class="st4" d="M202.4,73.4c0,0.4,0,0.8,0,1.2s0,0.8-0.1,1.2c0,0.2,0,0.4-0.1,0.8c-0.1,0.4-0.3,0.6-0.5,0.6
		c-0.6,0.1-1.2,0.1-1.6,0c-0.5-0.1-1.1-0.1-1.6,0c-0.3,0-0.5,0.1-0.8,0s-0.5,0-0.7,0c-0.2,0-0.5-0.1-0.8-0.5s-0.5-0.7-0.5-1
		c-0.2-0.7-0.4-1.4-0.5-2.1c-0.2-0.7-0.4-1.4-0.6-2.1c-0.4-1.3-0.9-2.7-1.4-4c-0.5-1.3-0.9-2.7-1.4-4c-0.8-2.2-1.5-4.5-2.2-6.6
		c-0.7-2.2-1.5-4.4-2.2-6.6c-0.1-0.4-0.3-0.9-0.5-1.3c-0.2-0.4-0.4-0.9-0.5-1.5c0,0.8,0,1.7,0,2.4c0,0.8,0,1.5,0,2.3
		c0,2.5,0.1,4.9,0.1,7.4c0,2.4,0.1,4.9,0.1,7.4c0,1.4,0,2.9,0,4.3s0,2.8-0.1,4.3v0.1c0,0.4-0.1,0.8-0.3,1.2
		c-0.2,0.3-0.5,0.5-0.8,0.4c-0.7,0-1.5,0-2.1,0.1c-0.8,0.1-1.5,0-2.1-0.4c-0.4-0.2-0.6-0.4-0.7-0.7c-0.1-0.2-0.2-0.7-0.2-1.3
		c0-1.1,0-2.3,0-3.5s0-2.3,0-3.5c-0.1-1.3-0.1-2.6-0.1-3.8c0-1.2,0.1-2.5,0.1-3.7c0.1-1.9,0.1-3.8,0-5.7c0-1.9-0.1-3.8-0.1-5.7
		c0-1.1,0-2.3,0-3.5s0-2.3-0.1-3.5c-0.1-2.3-0.1-4.6-0.2-6.8s-0.1-4.5-0.2-6.8c0-1,0-2,0-3.1s0-2.1,0-3.1c0-0.8,0.4-1.2,1.1-1.1
		s1.4,0.1,2,0.2s1.4,0.1,2,0.2c0.2,0,0.4,0.1,0.5,0.2c0.1,0.1,0.2,0.3,0.2,0.6c0.2,0.7,0.4,1.5,0.6,2.2c0.2,0.7,0.4,1.5,0.6,2.2
		c0.5,1.6,1,3.2,1.4,4.8c0.5,1.6,1,3.2,1.5,4.8c0.4,1.2,0.8,2.4,1.1,3.6c0.4,1.2,0.8,2.4,1.2,3.6c0.5,1.3,1,2.7,1.4,4
		c0.5,1.3,1,2.6,1.5,3.9c0.1,0.3,0.3,0.7,0.4,1s0.2,0.7,0.4,1h0.1v-1c0-2.6-0.1-5.2-0.1-7.8s-0.1-5.2-0.1-7.9c0-1,0-2.1-0.1-3.1
		c0-1-0.1-2.1-0.1-3.1c0-1.3-0.1-2.7-0.1-4.1s0-2.7-0.1-4.1c0-0.4,0.1-0.6,0.2-0.7c0.1-0.1,0.3-0.1,0.5-0.1c0.4,0,0.8,0,1.2,0
		c0.4,0,0.8,0,1.2,0h2.7c0.3,0,0.5,0.3,0.5,0.9c0,1.3,0,2.6,0,3.9s0,2.6,0.1,3.9c0,1.5,0.1,3,0.1,4.5s0.1,3,0.1,4.5
		c0.1,2.5,0.1,4.9,0.2,7.4c0,2.4,0.1,4.9,0.1,7.4c0.1,1.7,0.1,3.5,0.1,5.2s0,3.4,0,5.2c0,1.5,0.1,3.1,0.1,4.6
		C202.4,70.3,202.4,71.8,202.4,73.4z"/>
	<path class="st4" d="M205,32.5c-0.3-0.3-0.4-0.7-0.4-1.3s0-1.2-0.1-1.9c-0.1-1-0.1-2-0.2-3c0-1-0.1-2-0.2-3c0-0.7,0-1.1,0.1-1.3
		c0.1-0.2,0.4-0.3,0.8-0.3c1.3-0.2,2.4-0.2,3.6-0.1c1.2,0.1,2.4,0.2,3.6,0.1c2.2-0.1,4.4-0.2,6.6-0.3c2.2,0,4.4-0.1,6.6-0.1h0.6
		c0.5,0.1,0.8,0.2,0.9,0.4c0.1,0.1,0.1,0.7,0,1.7c-0.1,2.3-0.1,4.6-0.1,6.9c0,1.1-0.4,1.7-1.1,1.7c-0.7,0-1.4-0.1-2.1,0
		c-0.7,0-1.4,0-2,0c-0.4,0-0.7,0-1.1,0s-0.7,0-1.1,0c-0.5,0-0.8,0.4-0.8,1.3c0.1,4.9,0.2,9.7,0.3,14.6c0.1,4.9,0.2,9.7,0.2,14.6
		c0,2.1,0,4.3,0,6.3c0,2.1-0.1,4.2-0.1,6.3c0,0.7-0.1,1.2-0.2,1.4c-0.1,0.2-0.4,0.3-0.9,0.4l-3.4,0.2c-0.2,0-0.5,0-0.7,0
		s-0.4,0-0.7-0.1c-0.1,0-0.2-0.2-0.3-0.4c-0.1-0.2-0.2-0.4-0.2-0.6c-0.1-0.7-0.1-1.4-0.1-2.1s0-1.4,0-2.1c-0.1-1.4-0.1-2.9-0.2-4.4
		c0-1.5-0.1-2.9-0.1-4.4c0-3.1,0-6.2,0-9.3s0-6.2,0-9.3c0-1.7-0.1-3.5-0.1-5.2s0-3.5-0.1-5.2c0-0.8-0.1-1.3-0.2-1.5
		s-0.4-0.3-0.9-0.2c-0.1,0-0.6,0-1.2,0.1c-0.7,0.1-1.4,0.1-2.1,0.2c-0.8,0-1.5,0.1-2.1,0C205.5,32.7,205.2,32.6,205,32.5z"/>
	<path class="st4" d="M251.8,42c0.5,3.5,0.6,7,0.3,10.4c-0.3,3.4-0.8,6.9-1.4,10.3c-0.4,2.4-1.1,4.7-2,6.8c-1,2.2-2,4.1-3.1,5.7
		c-0.5,0.6-1,1.1-1.5,1.4c-0.6,0.3-1.1,0.6-1.6,0.8c-0.8,0.2-1.5,0.4-2.2,0.5c-0.7,0.1-1.5,0-2.2-0.2c-0.7-0.2-1.4-0.6-2.1-1
		s-1.4-0.9-1.9-1.5c-0.5-0.5-1-1.2-1.4-2.1c-0.4-0.8-0.8-1.7-1.2-2.5c-0.5-1.1-0.9-2.3-1.3-3.6c-0.4-1.2-0.7-2.5-0.9-3.9
		c-0.3-2.1-0.6-4.2-1-6.4c-0.3-2.2-0.4-4.4-0.2-6.6c0.1-1.1,0.1-2.4,0.2-3.9c0.1-1.5,0.1-3.1,0.3-4.7c0.1-0.7,0.2-1.5,0.3-2.2
		c0.1-0.7,0.3-1.4,0.4-2.1c0.3-1.8,0.8-3.5,1.4-5s1.2-3.1,1.8-4.5c0.6-1.3,1.4-2.5,2.1-3.6s1.6-1.9,2.7-2.3c0.4-0.2,0.8-0.4,1.3-0.5
		c0.4-0.1,0.9-0.2,1.3-0.3c0.7-0.1,1.3,0,1.8,0.3s1.2,0.7,1.7,1.2s1.1,1.1,1.5,1.8c0.5,0.7,1,1.4,1.5,2.1c1.4,2,2.4,4.4,3.4,7.1
		S251.5,39,251.8,42z M246.2,51.1c0.1-2.1,0.1-4.1,0-6c-0.1-1.9-0.4-3.9-1-5.7c-0.5-1.6-1.1-3-1.8-4.2c-0.8-1.2-1.7-1.8-2.8-1.8
		c-0.9,0-1.5,0.4-2.2,1.1c-0.7,0.7-1.3,1.6-1.8,2.5c-0.7,1.1-1.2,2.4-1.5,4c-0.4,1.5-0.6,3.1-0.8,4.6c-0.2,1.6-0.2,3.3-0.2,5
		s0.1,3.3,0.2,5c0.1,2,0.4,4,0.8,6c0.4,1.9,1.1,3.5,2.1,4.8c0.9,1,1.7,1.5,2.5,1.2s1.5-0.8,2.2-1.7c0.7-0.9,1.4-2.1,1.8-3.4
		c0.5-1.4,1-2.6,1.3-3.8c0.3-1.1,0.6-2.4,0.8-3.6C246,53.6,246.1,52.3,246.2,51.1z"/>
	<path class="st4" d="M278.7,42c0.5,3.5,0.6,7,0.3,10.4c-0.3,3.4-0.8,6.9-1.4,10.3c-0.4,2.4-1.1,4.7-2,6.8c-1,2.2-2,4.1-3.1,5.7
		c-0.5,0.6-1,1.1-1.5,1.4s-1.1,0.6-1.6,0.8c-0.8,0.2-1.5,0.4-2.2,0.5c-0.7,0.1-1.5,0-2.2-0.2c-0.7-0.2-1.4-0.6-2.1-1
		c-0.8-0.4-1.4-0.9-1.9-1.5c-0.5-0.5-1-1.2-1.4-2.1c-0.4-0.8-0.8-1.7-1.2-2.5c-0.5-1.1-0.9-2.3-1.3-3.6c-0.4-1.2-0.7-2.5-0.9-3.9
		c-0.3-2.1-0.6-4.2-1-6.4c-0.3-2.2-0.4-4.4-0.2-6.6c0.1-1.1,0.1-2.4,0.2-3.9c0.1-1.5,0.1-3.1,0.3-4.7c0.1-0.7,0.2-1.5,0.3-2.2
		c0.1-0.7,0.3-1.4,0.4-2.1c0.3-1.8,0.8-3.5,1.4-5s1.2-3.1,1.8-4.5c0.6-1.3,1.4-2.5,2.1-3.6s1.6-1.9,2.7-2.3c0.4-0.2,0.8-0.4,1.3-0.5
		c0.4-0.1,0.9-0.2,1.3-0.3c0.7-0.1,1.3,0,1.8,0.3s1.2,0.7,1.7,1.2c0.6,0.5,1.1,1.1,1.5,1.8c0.5,0.7,1,1.4,1.5,2.1
		c1.4,2,2.4,4.4,3.4,7.1C277.6,36.2,278.3,39,278.7,42z M273.1,51.1c0.1-2.1,0.1-4.1,0-6s-0.4-3.9-1-5.7c-0.5-1.6-1.1-3-1.8-4.2
		c-0.8-1.2-1.7-1.8-2.8-1.8c-0.9,0-1.5,0.4-2.2,1.1c-0.7,0.7-1.3,1.6-1.8,2.5c-0.7,1.1-1.2,2.4-1.5,4c-0.4,1.5-0.6,3.1-0.8,4.6
		c-0.2,1.6-0.2,3.3-0.2,5s0.1,3.3,0.2,5c0.1,2,0.4,4,0.8,6c0.4,1.9,1.1,3.5,2.1,4.8c0.9,1,1.7,1.5,2.5,1.2c0.8-0.3,1.5-0.8,2.2-1.7
		c0.7-0.9,1.4-2.1,1.8-3.4c0.5-1.4,1-2.6,1.3-3.8c0.3-1.1,0.6-2.4,0.8-3.6C272.9,53.6,273,52.3,273.1,51.1z"/>
	<path class="st4" d="M300.9,59.3c0.2,1.8,0.2,3.7,0,5.5s-0.6,3.5-1.2,4.9c-1.3,2.9-2.8,5-4.7,6.3s-3.9,1.5-5.9,0.6
		c-1.7-0.7-3.2-2.1-4.5-4c-1.3-1.9-2.1-4.4-2.7-7.4c-0.3-1.4-0.4-2.8-0.5-4.3c0-1.4-0.1-2.9-0.1-4.3c0-0.2,0.1-0.4,0.2-0.6
		c0.1-0.1,0.4-0.1,0.7-0.1c0.7,0,1.5,0,2.1,0c0.7,0,1.5,0,2.1,0c0.3,0,0.5,0.1,0.6,0.4c0.1,0.3,0.2,0.6,0.2,1c0,1.5,0.2,3,0.7,4.4
		c0.5,1.4,1,2.6,1.7,3.6c0.3,0.4,0.7,0.6,1.1,0.7s0.9,0.1,1.3,0s0.9-0.3,1.3-0.6c0.4-0.3,0.7-0.6,1-1c0.1-0.1,0.2-0.3,0.2-0.5
		c0-0.2,0.1-0.4,0.2-0.6c0.2-0.9,0.3-1.7,0.3-2.5c0-0.7-0.1-1.4-0.3-2.1c-0.2-0.6-0.4-1.3-0.7-1.9c-0.3-0.6-0.6-1.2-0.9-1.7
		c-0.8-1.4-1.5-2.6-2.4-3.8s-1.7-2.2-2.6-3.2c-0.7-0.8-1.3-1.7-1.9-2.6c-0.6-0.9-1.3-1.8-1.8-2.7c-0.8-1.1-1.3-2.4-1.5-3.8
		c-0.2-1.4-0.3-2.9-0.2-4.4c0.2-3.2,0.9-5.8,2-7.9c1.2-2.1,2.5-3.6,4.2-4.6c0.9-0.5,1.6-0.9,2.6-1c0.9-0.1,1.7,0,2.6,0.4
		c1.9,0.8,3.5,2.6,4.7,5.1c0.4,0.7,0.6,1.5,0.8,2.2s0.3,1.5,0.4,2.2c0.1,0.8,0.1,1.6,0.2,2.4c0,0.8,0,1.7,0,2.6
		c0,0.4-0.1,0.6-0.2,0.6s-0.3,0.1-0.4,0.1h-1.9h-1.9c-0.2,0-0.4-0.1-0.4-0.2c-0.1-0.1-0.1-0.4-0.1-0.9c0-0.6-0.1-1.3-0.2-1.9
		c-0.2-0.6-0.4-1.2-0.8-1.6c-0.4-0.4-0.7-0.8-1.1-1s-0.8-0.3-1.2-0.3c-0.8,0.2-1.4,0.8-1.9,1.8s-0.8,2.1-0.8,3.5
		c0.1,1.3,0.3,2.3,0.9,3.1c0.5,0.8,1.1,1.6,1.5,2.3c0.7,0.9,1.3,1.8,1.9,2.6c0.7,0.9,1.3,1.8,1.9,2.6c0.7,0.9,1.4,1.9,2,2.8
		c0.7,0.9,1.3,1.9,1.8,3.1C300.1,54.7,300.6,56.8,300.9,59.3z"/>
	<path class="st4" d="M302.5,32.5c-0.3-0.3-0.4-0.7-0.4-1.3s0-1.2-0.1-1.9c-0.1-1-0.1-2-0.2-3c0-1-0.1-2-0.2-3c0-0.7,0-1.1,0.1-1.3
		c0.1-0.2,0.4-0.3,0.8-0.3c1.3-0.2,2.4-0.2,3.6-0.1s2.4,0.2,3.6,0.1c2.2-0.1,4.4-0.2,6.6-0.3c2.2,0,4.4-0.1,6.6-0.1h0.6
		c0.5,0.1,0.8,0.2,0.9,0.4c0.1,0.1,0.1,0.7,0,1.7c-0.1,2.3-0.1,4.6-0.1,6.9c0,1.1-0.4,1.7-1.1,1.7s-1.4-0.1-2,0c-0.7,0-1.4,0-2,0
		c-0.4,0-0.7,0-1.1,0c-0.4,0-0.7,0-1.1,0c-0.5,0-0.8,0.4-0.8,1.3c0.1,4.9,0.2,9.7,0.3,14.6s0.2,9.7,0.2,14.6c0,2.1,0,4.3,0,6.3
		s-0.1,4.2-0.1,6.3c0,0.7-0.1,1.2-0.2,1.4c-0.1,0.2-0.4,0.3-0.9,0.4l-3.4,0.2c-0.2,0-0.5,0-0.7,0c-0.2,0-0.4,0-0.7-0.1
		c-0.1,0-0.2-0.2-0.3-0.4c-0.1-0.2-0.2-0.4-0.2-0.6c-0.1-0.7-0.1-1.4-0.1-2.1s0-1.4,0-2.1c-0.1-1.4-0.1-2.9-0.2-4.4
		c0-1.5-0.1-2.9-0.1-4.4c0-3.1,0-6.2,0-9.3s0-6.2,0-9.3c0-1.7-0.1-3.5-0.1-5.2s0-3.5-0.1-5.2c0-0.8-0.1-1.3-0.2-1.5
		s-0.4-0.3-0.9-0.2c-0.1,0-0.6,0-1.2,0.1c-0.6,0.1-1.4,0.1-2.1,0.2c-0.8,0-1.5,0.1-2.1,0C303.1,32.7,302.7,32.6,302.5,32.5z"/>
</g>
<g>
	<g>
		<g>
			<path class="st5" d="M6.1,59.9C5.9,58.9,5.6,58,5.4,57C-3.2,21.3,40.5-3.8,67.1,21.6c1,0.9,1.9,1.9,2.8,2.9
				c27.3,28.9-3.3,74.7-40.4,60.4c-0.4-0.1-0.7-0.3-1.1-0.4C17.6,80,9.3,71.1,6.1,59.9z"/>
			<path class="st6" d="M6.9,36.5c-0.2,0.5-0.3,1-0.5,1.5c-10.8,37,34.8,64.1,62,36.8c0.8-0.8,1.6-1.7,2.4-2.5
				C97,43.8,66.7-1.1,30.5,12.5c-0.8,0.3-1.6,0.6-2.3,0.9C18,17.5,10.2,26,6.9,36.5z"/>
			<path class="st7" d="M6.9,36.5c-0.2,0.5-0.3,1-0.5,1.5c-10.8,37,34.8,64.1,62,36.8c0.8-0.8,1.6-1.7,2.4-2.5
				C97,43.8,66.7-1.1,30.5,12.5c-0.8,0.3-1.6,0.6-2.3,0.9C18,17.5,10.2,26,6.9,36.5z"/>
		</g>
	</g>
</g>
<polygon class="st8" points="22,30 58.8,46 26.5,69.9 "/>
<polygon class="st9" points="27.9,29.4 67.1,45.1 32.5,69.2 "/>
<polygon class="st10" points="32.1,27.4 71.2,44.5 36.9,69.9 "/>
</svg>
